<?xml version="1.0" encoding="UTF-8"?>
<svg xmlns="http://www.w3.org/2000/svg" xmlns:xlink="http://www.w3.org/1999/xlink" width="25px" height="15px" viewBox="0 0 25 15" version="1.1">
<g id="surface1">
<path style=" stroke:none;fill-rule:nonzero;fill:rgb(6.27451%,9.411765%,15.686275%);fill-opacity:1;" d="M 5.4375 9.472656 L 3.546875 9.472656 L 3.546875 14.398438 L 0 14.398438 L 0 1 L 5.359375 1 C 7.277344 1 8.675781 1.328125 9.558594 1.984375 C 10.4375 2.628906 10.875 3.648438 10.875 5.039062 C 10.875 6.851562 10.214844 8.066406 8.886719 8.683594 L 12.648438 14.398438 L 8.550781 14.398438 Z M 3.546875 7.011719 L 5.359375 7.011719 C 6.054688 7.011719 6.554688 6.867188 6.855469 6.578125 C 7.171875 6.289062 7.328125 5.839844 7.328125 5.238281 C 7.328125 4.605469 7.179688 4.152344 6.875 3.875 C 6.574219 3.601562 6.070312 3.464844 5.359375 3.464844 L 3.546875 3.464844 Z M 3.546875 7.011719 "/>
<path style=" stroke:none;fill-rule:nonzero;fill:rgb(20.392157%,43.921569%,100%);fill-opacity:1;" d="M 20.507812 13.851562 C 18.878906 13.851562 17.5 13.535156 16.371094 12.90625 C 15.238281 12.261719 14.390625 11.414062 13.828125 10.363281 C 13.277344 9.300781 13 8.144531 13 6.898438 C 13 5.660156 13.289062 4.519531 13.867188 3.46875 C 14.457031 2.417969 15.332031 1.578125 16.488281 0.945312 C 17.644531 0.316406 19.035156 0 20.664062 0 C 22.1875 0 23.527344 0.296875 24.683594 0.886719 L 23.976562 3.371094 C 23.488281 3.121094 22.984375 2.921875 22.457031 2.777344 C 21.933594 2.621094 21.335938 2.542969 20.664062 2.542969 C 19.8125 2.542969 19.070312 2.738281 18.4375 3.132812 C 17.820312 3.515625 17.347656 4.039062 17.019531 4.710938 C 16.703125 5.367188 16.546875 6.101562 16.546875 6.917969 C 16.546875 8.203125 16.886719 9.261719 17.570312 10.089844 C 18.253906 10.902344 19.234375 11.308594 20.507812 11.308594 C 21.597656 11.308594 22.773438 11.042969 24.035156 10.503906 L 24.703125 12.925781 C 24.164062 13.203125 23.523438 13.425781 22.773438 13.597656 C 22.023438 13.765625 21.269531 13.851562 20.507812 13.851562 Z M 20.507812 13.851562 "/>
</g>
</svg>
